<?xml version="1.0" encoding="UTF-8"?>
<svg xmlns="http://www.w3.org/2000/svg" xmlns:xlink="http://www.w3.org/1999/xlink" width="128px" height="28px" viewBox="0 0 128 28" version="1.1">
<g id="surface1">
<path style=" stroke:none;fill-rule:nonzero;fill:rgb(0%,0%,0%);fill-opacity:1;" d="M 17.386719 1.679688 C 16.496094 2.644531 13.511719 7.285156 13.511719 7.679688 C 13.511719 7.785156 24.675781 7.820312 38.328125 7.785156 L 63.109375 7.679688 L 63.21875 4.179688 L 63.324219 0.679688 L 50.167969 0.785156 L 37.050781 0.894531 L 35.484375 1.964844 C 34.59375 2.605469 33.527344 3.820312 32.996094 4.820312 L 32 6.605469 L 32 0.714844 L 18.277344 0.714844 Z M 17.386719 1.679688 "/>
<path style=" stroke:none;fill-rule:nonzero;fill:rgb(0%,0%,0%);fill-opacity:1;" d="M 64.355469 4.285156 L 64.355469 7.855469 L 71.464844 7.855469 L 71.464844 0.714844 L 64.355469 0.714844 Z M 64.355469 4.285156 "/>
<path style=" stroke:none;fill-rule:nonzero;fill:rgb(0%,0%,0%);fill-opacity:1;" d="M 87.539062 4.179688 L 87.644531 7.679688 L 107.484375 7.785156 L 127.289062 7.855469 L 127.289062 0.679688 L 113.457031 0.785156 L 99.625 0.894531 L 98.0625 1.964844 C 97.066406 2.679688 96.214844 3.714844 95.574219 4.964844 L 94.578125 6.929688 L 94.578125 0.714844 L 87.429688 0.714844 Z M 87.539062 4.179688 "/>
<path style=" stroke:none;fill-rule:nonzero;fill:rgb(0%,0%,0%);fill-opacity:1;" d="M 7.109375 17.535156 C 3.875 22.679688 1.171875 27.035156 1.136719 27.214844 C 1.066406 27.394531 2.84375 27.464844 5.15625 27.429688 L 9.316406 27.320312 L 15.148438 18.214844 L 20.941406 9.105469 L 19.875 8.894531 C 19.269531 8.75 17.492188 8.535156 15.894531 8.429688 L 12.976562 8.214844 Z M 7.109375 17.535156 "/>
<path style=" stroke:none;fill-rule:nonzero;fill:rgb(0%,0%,0%);fill-opacity:1;" d="M 64.355469 12.714844 L 64.355469 17.285156 L 63.324219 15.605469 C 62.71875 14.714844 61.617188 13.535156 60.800781 13 C 59.414062 12.070312 58.988281 12 47.539062 11.035156 C 41.066406 10.464844 34.988281 10.035156 34.027344 10 L 32.355469 10 L 32.890625 11.320312 C 33.707031 13.25 35.449219 14.894531 37.296875 15.5 C 38.1875 15.785156 43.023438 16.394531 48 16.785156 C 52.976562 17.214844 57.28125 17.714844 57.492188 17.929688 C 58.0625 18.394531 58.097656 19.355469 57.527344 19.929688 C 57.207031 20.25 53.832031 20.355469 44.550781 20.355469 L 32 20.355469 L 32 15.214844 C 32 12.355469 31.894531 9.964844 31.75 9.894531 C 31.574219 9.785156 29.972656 9.605469 28.195312 9.5 L 24.890625 9.214844 L 24.890625 27.535156 L 41.882812 27.429688 C 58.667969 27.320312 58.84375 27.320312 60.335938 26.535156 C 62.007812 25.644531 63.464844 23.894531 63.820312 22.429688 C 63.964844 21.855469 64.179688 21.429688 64.320312 21.464844 C 64.425781 21.464844 64.925781 22.285156 65.421875 23.320312 C 66.097656 24.679688 66.773438 25.429688 68.089844 26.25 L 69.796875 27.320312 L 78.71875 27.429688 C 84.730469 27.5 88.105469 27.429688 89.066406 27.144531 C 91.34375 26.464844 93.15625 25.105469 93.902344 23.464844 L 94.578125 21.964844 L 94.578125 27.535156 L 108.195312 27.429688 L 121.847656 27.320312 L 123.554688 26.25 C 128.925781 22.894531 128.320312 14.75 122.488281 12.285156 C 121.351562 11.820312 95.785156 10.105469 95.394531 10.464844 C 94.96875 10.894531 96.140625 12.929688 97.492188 14.070312 C 98.238281 14.75 99.554688 15.464844 100.375 15.679688 C 101.191406 15.894531 105.957031 16.394531 110.933594 16.820312 C 115.910156 17.214844 120.214844 17.714844 120.425781 17.929688 C 121.101562 18.5 120.996094 19.570312 120.214844 20 C 119.75 20.214844 114.949219 20.355469 107.058594 20.355469 L 94.578125 20.355469 L 94.578125 15.394531 C 94.578125 9.644531 94.898438 10 90.238281 10 L 87.464844 10 L 87.464844 14.570312 C 87.464844 18.570312 87.394531 19.25 86.828125 19.75 C 86.257812 20.285156 85.191406 20.355469 79.539062 20.355469 C 70.933594 20.355469 71.464844 20.785156 71.464844 13.75 L 71.464844 8.570312 L 70.078125 8.570312 C 69.332031 8.570312 67.734375 8.464844 66.523438 8.355469 L 64.355469 8.105469 Z M 64.355469 12.714844 "/>
</g>
</svg>
