<?xml version="1.0" encoding="UTF-8"?>
<svg xmlns="http://www.w3.org/2000/svg" xmlns:xlink="http://www.w3.org/1999/xlink" width="128px" height="30px" viewBox="0 0 128 30" version="1.1">
<g id="surface1">
<path style=" stroke:none;fill-rule:nonzero;fill:rgb(0%,0%,0%);fill-opacity:1;" d="M 11.015625 0.691406 C 4.59375 2.394531 0 8.328125 0 14.953125 C 0 25.054688 10.195312 32.253906 19.589844 28.804688 C 21.964844 27.929688 23.589844 26.824219 25.417969 24.894531 C 27.929688 22.199219 29.257812 18.796875 29.257812 14.953125 C 29.257812 12.515625 28.800781 10.515625 27.726562 8.28125 C 26.558594 5.84375 23.679688 2.921875 21.210938 1.75 C 18.035156 0.207031 14.308594 -0.160156 11.015625 0.691406 Z M 12.433594 10.535156 C 13.554688 14.285156 14.515625 17.4375 14.605469 17.53125 C 14.675781 17.621094 15.613281 14.769531 16.664062 11.203125 C 18.835938 3.933594 18.949219 3.566406 19.085938 3.726562 C 19.246094 3.863281 24.6875 21.925781 24.6875 22.269531 C 24.6875 22.476562 24.457031 22.546875 24.070312 22.5 C 23.542969 22.429688 23.429688 22.246094 23.085938 21.003906 C 22.515625 18.886719 21.347656 16.65625 20.503906 16.058594 C 20.070312 15.734375 19.453125 15.527344 18.925781 15.527344 C 17.804688 15.527344 16.480469 16.792969 15.496094 18.796875 C 15.109375 19.601562 14.71875 20.246094 14.652344 20.246094 C 14.558594 20.246094 14.21875 19.671875 13.851562 18.957031 C 12.546875 16.242188 11.199219 15.160156 9.738281 15.644531 C 9.324219 15.78125 8.730469 16.171875 8.386719 16.519531 C 7.632812 17.324219 6.492188 19.761719 6.148438 21.328125 C 5.898438 22.453125 5.828125 22.546875 5.1875 22.546875 C 4.617188 22.546875 4.527344 22.476562 4.664062 22.015625 C 5.164062 20.0625 10.195312 3.679688 10.285156 3.679688 C 10.355469 3.679688 11.3125 6.765625 12.433594 10.535156 Z M 12.433594 10.535156 "/>
<path style=" stroke:none;fill-rule:nonzero;fill:rgb(0%,0%,0%);fill-opacity:1;" d="M 68.34375 11.226562 L 68.34375 17.394531 L 68.984375 18.65625 C 69.804688 20.3125 71.085938 21.210938 72.800781 21.351562 L 74.058594 21.441406 L 74.058594 18.863281 L 73.304688 18.863281 C 72.890625 18.863281 72.320312 18.703125 72.046875 18.496094 C 71.0625 17.808594 70.855469 17.023438 70.855469 13.917969 L 70.855469 11.042969 L 74.058594 11.042969 L 74.058594 8.511719 L 70.855469 8.511719 L 70.855469 5.0625 L 68.34375 5.0625 Z M 68.34375 11.226562 "/>
<path style=" stroke:none;fill-rule:nonzero;fill:rgb(0%,0%,0%);fill-opacity:1;" d="M 111.085938 13.089844 L 111.085938 21.164062 L 113.601562 21.164062 L 113.554688 13.160156 L 113.484375 5.175781 L 112.296875 5.105469 L 111.085938 5.039062 Z M 111.085938 13.089844 "/>
<path style=" stroke:none;fill-rule:nonzero;fill:rgb(0%,0%,0%);fill-opacity:1;" d="M 37.234375 8.972656 C 36.273438 9.480469 35.269531 10.605469 34.8125 11.664062 C 34.605469 12.191406 34.515625 13.644531 34.515625 16.910156 L 34.515625 21.394531 L 37.027344 21.394531 L 37.027344 12.605469 L 37.804688 11.824219 C 38.398438 11.226562 38.765625 11.042969 39.40625 11.042969 C 40.386719 11.042969 41.460938 11.550781 41.738281 12.125 C 41.851562 12.355469 41.988281 14.492188 42.058594 16.910156 L 42.171875 21.28125 L 43.382812 21.351562 L 44.570312 21.417969 L 44.570312 17.554688 C 44.570312 13.042969 44.753906 12.125 45.78125 11.503906 C 46.675781 10.949219 47.929688 10.90625 48.640625 11.410156 C 49.691406 12.148438 49.828125 12.8125 49.828125 17.253906 L 49.828125 21.394531 L 52.34375 21.394531 L 52.34375 17.117188 C 52.34375 12.125 52.183594 11.320312 50.835938 9.984375 C 49.667969 8.8125 48.617188 8.441406 46.742188 8.558594 C 45.554688 8.628906 45.097656 8.789062 44.273438 9.386719 C 43.359375 10.03125 43.222656 10.078125 42.949219 9.753906 C 41.941406 8.511719 38.855469 8.097656 37.234375 8.972656 Z M 37.234375 8.972656 "/>
<path style=" stroke:none;fill-rule:nonzero;fill:rgb(0%,0%,0%);fill-opacity:1;" d="M 58.195312 8.742188 C 56.527344 9.25 54.789062 11.089844 54.171875 12.953125 C 53.804688 14.148438 53.964844 16.679688 54.515625 17.828125 C 55.085938 19.027344 56.503906 20.40625 57.667969 20.957031 C 59.152344 21.625 61.761719 21.558594 63.269531 20.796875 C 65.507812 19.671875 66.8125 17.53125 66.8125 14.953125 C 66.8125 12.378906 65.507812 10.238281 63.269531 9.109375 C 62.308594 8.628906 61.761719 8.511719 60.480469 8.535156 C 59.589844 8.535156 58.558594 8.648438 58.195312 8.742188 Z M 62.558594 11.640625 C 64.914062 13.414062 64.890625 16.496094 62.539062 18.265625 C 61.601562 18.980469 59.132812 18.957031 58.101562 18.222656 C 55.613281 16.425781 56.089844 12.378906 58.972656 11.203125 C 59.679688 10.90625 61.941406 11.179688 62.558594 11.640625 Z M 62.558594 11.640625 "/>
<path style=" stroke:none;fill-rule:nonzero;fill:rgb(0%,0%,0%);fill-opacity:1;" d="M 78.46875 9.085938 C 76.207031 10.238281 74.878906 12.398438 74.878906 14.953125 C 74.878906 17.53125 76.230469 19.691406 78.515625 20.84375 C 79.613281 21.371094 79.976562 21.441406 81.53125 21.351562 C 84.230469 21.210938 86.125 20.039062 87.199219 17.828125 C 87.839844 16.542969 87.839844 13.367188 87.199219 12.078125 C 86.101562 9.847656 84.230469 8.671875 81.484375 8.558594 C 79.886719 8.488281 79.519531 8.558594 78.46875 9.085938 Z M 83.613281 11.710938 C 86.398438 13.6875 85.371094 18.359375 82.058594 18.796875 C 79.429688 19.164062 77.441406 17.484375 77.441406 14.953125 C 77.441406 13.34375 78.355469 11.894531 79.769531 11.296875 C 80.730469 10.882812 82.789062 11.113281 83.613281 11.710938 Z M 83.613281 11.710938 "/>
<path style=" stroke:none;fill-rule:nonzero;fill:rgb(0%,0%,0%);fill-opacity:1;" d="M 92.207031 8.949219 C 91.109375 9.457031 89.898438 10.835938 89.601562 11.964844 C 89.460938 12.398438 89.371094 14.699219 89.371094 17.070312 L 89.371094 21.394531 L 91.863281 21.394531 L 91.929688 16.910156 L 92 12.421875 L 92.617188 11.800781 C 93.097656 11.320312 93.554688 11.136719 94.445312 11.042969 L 95.65625 10.929688 L 95.726562 9.707031 L 95.792969 8.511719 L 94.46875 8.511719 C 93.667969 8.511719 92.777344 8.695312 92.207031 8.949219 Z M 92.207031 8.949219 "/>
<path style=" stroke:none;fill-rule:nonzero;fill:rgb(0%,0%,0%);fill-opacity:1;" d="M 100.230469 9.0625 C 98.058594 10.078125 96.457031 12.585938 96.457031 14.953125 C 96.457031 17.324219 98.058594 19.832031 100.230469 20.84375 C 101.074219 21.257812 101.78125 21.394531 102.972656 21.394531 C 108.617188 21.394531 111.542969 14.929688 107.816406 10.675781 C 106.515625 9.179688 105.003906 8.511719 102.972656 8.511719 C 101.78125 8.511719 101.074219 8.648438 100.230469 9.0625 Z M 104.890625 11.527344 C 107.0625 12.746094 107.613281 15.550781 106.011719 17.394531 C 105.074219 18.449219 104.25 18.863281 102.972656 18.863281 C 101.234375 18.863281 99.75 17.761719 99.199219 16.035156 C 98.171875 12.792969 101.898438 9.824219 104.890625 11.527344 Z M 104.890625 11.527344 "/>
<path style=" stroke:none;fill-rule:nonzero;fill:rgb(0%,0%,0%);fill-opacity:1;" d="M 118.695312 9.085938 C 116.433594 10.238281 115.109375 12.398438 115.109375 14.953125 C 115.109375 17.53125 116.457031 19.691406 118.742188 20.84375 C 119.839844 21.371094 120.207031 21.441406 121.761719 21.371094 C 123.039062 21.304688 123.816406 21.144531 124.527344 20.75 C 125.714844 20.128906 125.714844 20.128906 125.714844 20.707031 C 125.714844 21.097656 125.875 21.164062 126.855469 21.164062 L 128 21.164062 L 128 17.300781 C 128 13.734375 127.953125 13.367188 127.453125 12.285156 C 126.308594 9.824219 124.546875 8.695312 121.714844 8.558594 C 120.113281 8.488281 119.75 8.558594 118.695312 9.085938 Z M 123.542969 11.570312 C 124.617188 12.171875 125.484375 13.6875 125.484375 14.953125 C 125.484375 16.21875 124.617188 17.738281 123.542969 18.335938 C 122.46875 18.957031 120.753906 19.027344 119.792969 18.519531 C 118.21875 17.714844 117.28125 15.691406 117.714844 14.058594 C 118.398438 11.433594 121.1875 10.238281 123.542969 11.570312 Z M 123.542969 11.570312 "/>
</g>
</svg>
