<?xml version="1.0" encoding="UTF-8"?>
<svg xmlns="http://www.w3.org/2000/svg" xmlns:xlink="http://www.w3.org/1999/xlink" width="128px" height="26px" viewBox="0 0 125 26" version="1.1">
<g id="surface1">
<path style=" stroke:none;fill-rule:nonzero;fill:rgb(0%,0%,0%);fill-opacity:1;" d="M 6.878906 2.105469 C 4.90625 2.179688 1.835938 2.40625 1.371094 2.507812 L 1.226562 2.539062 L 1.226562 24.265625 L 7.800781 24.265625 L 7.800781 19.066406 L 9.3125 19.066406 C 11.054688 19.066406 12.011719 18.992188 13.070312 18.78125 C 17.113281 17.972656 19.542969 15.539062 20.085938 11.761719 C 20.183594 11.085938 20.171875 9.421875 20.058594 8.699219 C 19.480469 4.824219 16.839844 2.71875 11.910156 2.199219 C 10.773438 2.078125 8.582031 2.035156 6.878906 2.105469 Z M 10.132812 6.214844 C 11.945312 6.492188 13.03125 7.355469 13.511719 8.882812 C 13.683594 9.414062 13.75 10.800781 13.640625 11.507812 C 13.476562 12.566406 12.984375 13.570312 12.359375 14.113281 C 11.988281 14.4375 11.214844 14.828125 10.625 14.988281 C 10.261719 15.09375 9.914062 15.125 8.984375 15.148438 L 7.800781 15.179688 L 7.800781 6.128906 L 8.679688 6.128906 C 9.15625 6.128906 9.816406 6.171875 10.132812 6.214844 Z M 10.132812 6.214844 "/>
<path style=" stroke:none;fill-rule:nonzero;fill:rgb(0%,0%,0%);fill-opacity:1;" d="M 91.730469 2.105469 C 90.152344 2.160156 88.5 2.273438 87.152344 2.40625 L 86.140625 2.507812 L 86.121094 13.382812 L 86.109375 24.265625 L 92.621094 24.265625 L 92.621094 19.066406 L 94.144531 19.066406 C 96.570312 19.066406 97.96875 18.882812 99.414062 18.378906 C 101.886719 17.519531 103.550781 15.984375 104.40625 13.785156 C 105.148438 11.855469 105.210938 9.234375 104.558594 7.242188 C 103.644531 4.457031 101.242188 2.808594 97.300781 2.265625 C 95.863281 2.0625 94.273438 2.019531 91.730469 2.105469 Z M 95.507812 6.3125 C 96.753906 6.625 97.601562 7.261719 98.078125 8.238281 C 98.417969 8.933594 98.527344 9.488281 98.527344 10.492188 C 98.515625 12.945312 97.496094 14.4375 95.453125 14.992188 C 95.082031 15.09375 94.734375 15.128906 93.804688 15.148438 L 92.621094 15.179688 L 92.621094 10.695312 C 92.621094 8.226562 92.636719 6.191406 92.667969 6.164062 C 92.695312 6.132812 93.222656 6.128906 93.847656 6.148438 C 94.71875 6.171875 95.105469 6.210938 95.507812 6.3125 Z M 95.507812 6.3125 "/>
<path style=" stroke:none;fill-rule:nonzero;fill:rgb(0%,0%,0%);fill-opacity:1;" d="M 114.636719 2.109375 C 111.296875 2.363281 109.023438 3.484375 107.839844 5.460938 C 107.582031 5.886719 107.410156 6.308594 107.21875 6.996094 C 107.113281 7.386719 107.089844 7.644531 107.089844 8.574219 C 107.085938 9.535156 107.101562 9.761719 107.226562 10.238281 C 107.5 11.351562 108.132812 12.40625 108.957031 13.117188 C 109.941406 13.972656 111.089844 14.558594 113.503906 15.4375 C 116.03125 16.367188 116.800781 16.808594 117.164062 17.550781 C 117.292969 17.824219 117.324219 17.976562 117.324219 18.316406 C 117.308594 19.296875 116.734375 19.925781 115.585938 20.210938 C 115.039062 20.347656 113.496094 20.398438 112.640625 20.3125 C 110.632812 20.101562 108.304688 19.511719 106.84375 18.855469 C 106.640625 18.769531 106.46875 18.707031 106.453125 18.71875 C 106.4375 18.738281 106.582031 19.816406 106.769531 21.121094 C 106.960938 22.429688 107.113281 23.523438 107.113281 23.5625 C 107.113281 23.640625 108.148438 23.96875 109.050781 24.171875 C 111.886719 24.804688 115.515625 24.867188 117.949219 24.324219 C 118.679688 24.160156 119.835938 23.769531 120.324219 23.523438 C 122.535156 22.402344 123.699219 20.699219 123.945312 18.230469 C 124.132812 16.363281 123.65625 14.789062 122.550781 13.617188 C 121.46875 12.472656 120.363281 11.886719 117.003906 10.671875 C 114.792969 9.878906 113.980469 9.367188 113.691406 8.585938 C 113.589844 8.320312 113.613281 7.695312 113.722656 7.445312 C 113.964844 6.945312 114.601562 6.554688 115.449219 6.40625 C 116.027344 6.300781 117.292969 6.289062 118.207031 6.382812 C 119.484375 6.507812 121.328125 6.914062 122.1875 7.253906 C 122.351562 7.316406 122.492188 7.359375 122.507812 7.347656 C 122.53125 7.324219 122.058594 3.046875 122.007812 2.808594 C 121.976562 2.675781 121.933594 2.660156 120.503906 2.414062 C 118.949219 2.140625 116.132812 1.992188 114.636719 2.109375 Z M 114.636719 2.109375 "/>
<path style=" stroke:none;fill-rule:nonzero;fill:rgb(0%,0%,0%);fill-opacity:1;" d="M 22.847656 13.402344 L 22.847656 24.265625 L 29.417969 24.265625 L 29.417969 15.660156 L 32.847656 15.675781 L 36.269531 15.691406 L 36.285156 19.984375 L 36.296875 24.265625 L 42.871094 24.265625 L 42.871094 2.539062 L 36.296875 2.539062 L 36.285156 6.851562 L 36.269531 11.171875 L 32.847656 11.191406 L 29.417969 11.203125 L 29.417969 2.539062 L 22.847656 2.539062 Z M 22.847656 13.402344 "/>
<path style=" stroke:none;fill-rule:nonzero;fill:rgb(0%,0%,0%);fill-opacity:1;" d="M 47.785156 13.402344 L 47.785156 24.265625 L 54.355469 24.265625 L 54.355469 2.539062 L 47.785156 2.539062 Z M 47.785156 13.402344 "/>
<path style=" stroke:none;fill-rule:nonzero;fill:rgb(0%,0%,0%);fill-opacity:1;" d="M 59.269531 13.402344 L 59.269531 24.265625 L 65.207031 24.253906 L 71.140625 24.234375 L 71.625 22.132812 C 71.886719 20.972656 72.105469 20.007812 72.105469 19.984375 C 72.105469 19.957031 70.6875 19.925781 68.960938 19.921875 L 65.808594 19.902344 L 65.792969 11.21875 L 65.78125 2.539062 L 59.269531 2.539062 Z M 59.269531 13.402344 "/>
<path style=" stroke:none;fill-rule:nonzero;fill:rgb(0%,0%,0%);fill-opacity:1;" d="M 74.5 13.402344 L 74.5 24.265625 L 81.074219 24.265625 L 81.074219 2.539062 L 74.5 2.539062 Z M 74.5 13.402344 "/>
</g>
</svg>
